<?xml version="1.0" standalone="no"?>
<!DOCTYPE svg PUBLIC "-//W3C//DTD SVG 20010904//EN"
 "http://www.w3.org/TR/2001/REC-SVG-20010904/DTD/svg10.dtd">
<svg version="1.0" xmlns="http://www.w3.org/2000/svg"
 width="512.000000pt" height="512.000000pt" viewBox="0 0 512.000000 512.000000"
 preserveAspectRatio="xMidYMid meet">

<g transform="translate(0.000000,512.000000) scale(0.100000,-0.100000)"
fill="#000000" stroke="none">
<path d="M2555 4893 c-11 -3 -25 -12 -32 -20 -9 -11 -16 -13 -25 -6 -7 6 -27
12 -45 15 -24 3 -33 0 -36 -13 -3 -13 -20 -19 -60 -24 -30 -4 -64 -4 -74 -1
-12 4 -38 -4 -65 -18 -45 -24 -45 -24 -62 -4 -13 15 -24 18 -49 13 -60 -12
-149 -50 -158 -67 -6 -10 -21 -18 -37 -18 -46 0 -106 -24 -134 -53 -16 -15
-28 -31 -28 -35 0 -4 -10 -18 -21 -32 -11 -14 -18 -18 -17 -10 2 8 -2 15 -7
15 -6 0 -9 -8 -8 -18 2 -12 -7 -21 -27 -29 -17 -5 -30 -16 -30 -24 0 -9 -11
-14 -27 -14 -20 0 -39 -12 -66 -40 -20 -22 -43 -40 -50 -40 -38 0 -177 -211
-177 -269 0 -10 -8 -29 -19 -42 -22 -29 -61 -116 -61 -136 0 -8 -9 -28 -20
-43 -16 -22 -19 -37 -14 -73 5 -36 2 -53 -14 -79 -20 -33 -24 -91 -9 -130 15
-40 17 -51 8 -62 -10 -12 -30 -215 -25 -261 5 -48 22 -143 33 -178 5 -18 16
-54 25 -82 9 -27 16 -62 16 -76 0 -14 9 -34 20 -44 11 -10 22 -27 26 -39 4
-11 20 -36 35 -54 35 -39 35 -50 7 -98 -18 -31 -21 -50 -20 -137 3 -142 29
-403 48 -468 18 -62 60 -129 81 -129 32 0 69 -54 83 -120 13 -65 82 -294 120
-404 33 -92 13 -146 -100 -274 -80 -91 -141 -125 -268 -148 -129 -23 -208 -48
-266 -83 -33 -20 -211 -78 -336 -110 -70 -18 -157 -58 -147 -68 5 -5 253 52
293 67 33 13 57 13 49 0 -10 -16 12 -12 55 10 22 11 74 25 117 30 43 6 88 13
101 15 37 9 24 25 -20 25 -36 0 -40 2 -28 14 20 19 296 103 306 93 1 -1 -18
-34 -42 -72 -106 -165 -185 -372 -209 -544 -11 -83 -13 -89 -15 -46 l-3 50 -8
-60 c-5 -33 -10 -99 -11 -147 -2 -48 -5 -81 -8 -72 -7 20 -29 -117 -29 -178
l1 -48 46 0 c43 1 45 2 28 15 -24 18 -13 34 19 27 20 -3 24 -9 20 -23 -6 -17
-1 -19 39 -19 25 0 46 4 46 9 0 4 -21 30 -47 57 -27 27 -54 56 -60 65 -10 13
-8 53 12 205 14 104 28 203 31 219 18 95 71 261 105 329 44 86 126 213 154
236 17 14 18 13 12 -22 -4 -21 -10 -55 -13 -75 -8 -59 12 -18 26 52 13 62 70
186 100 218 16 17 17 13 12 -86 -13 -302 84 -751 245 -1125 l36 -82 148 1 c82
1 149 6 149 10 0 5 5 9 11 9 5 0 8 -4 5 -8 -8 -13 112 -14 135 -1 16 8 20 8
14 0 -4 -8 4 -11 24 -9 16 1 29 6 28 11 -1 5 6 11 16 12 15 3 16 1 6 -11 -14
-17 2 -19 19 -2 9 9 12 9 12 0 0 -7 7 -12 15 -12 8 0 15 6 15 14 0 8 10 13 23
12 14 -1 21 4 19 14 -3 12 0 11 15 -2 12 -11 30 -16 48 -13 17 2 34 4 38 4 5
1 5 5 2 11 -3 6 1 7 9 4 9 -3 16 -10 16 -14 0 -5 8 -7 18 -6 9 2 17 8 17 14 0
6 3 13 7 17 3 4 5 -1 3 -12 -2 -10 -4 -21 -4 -25 -1 -4 -18 -9 -38 -11 -21 -2
9 -4 67 -5 60 -1 99 2 92 7 -8 4 -37 6 -65 4 -28 -2 -47 0 -43 4 4 5 13 8 19
8 7 0 12 5 12 12 0 6 3 15 7 19 4 3 5 -3 3 -16 -3 -18 -2 -20 10 -10 11 10 15
10 15 1 0 -7 5 -9 10 -6 6 4 7 11 4 17 -4 6 1 6 14 -1 12 -6 23 -7 26 -3 6 10
68 8 84 -2 6 -3 14 -1 18 5 5 8 3 9 -6 4 -9 -5 -11 -4 -6 4 5 8 12 9 19 3 7
-5 28 -8 47 -7 19 1 41 -2 48 -8 9 -7 11 -6 6 7 -4 11 -16 16 -40 14 -18 -1
-36 1 -40 5 -4 4 0 7 10 7 9 0 15 4 11 9 -3 5 -1 13 5 16 6 4 10 3 9 -2 -4
-23 3 -25 17 -5 18 26 10 49 -12 31 -12 -10 -17 -9 -27 0 -7 7 -7 11 -2 9 6
-2 10 1 10 6 0 5 -16 10 -35 10 -22 0 -34 -4 -33 -12 2 -7 -2 -12 -8 -12 -6 0
-9 7 -5 15 3 9 0 15 -9 15 -9 0 -12 6 -9 15 4 8 13 15 21 15 8 0 11 -5 7 -11
-4 -7 1 -10 12 -7 13 2 19 12 19 30 1 15 -2 25 -6 22 -4 -2 -10 0 -14 6 -3 5
2 10 12 10 14 0 15 2 4 9 -10 7 -11 10 -1 16 8 5 18 1 27 -10 10 -15 10 -20 1
-26 -8 -5 -5 -8 9 -6 17 1 19 4 11 14 -7 9 -7 18 3 30 8 9 9 14 4 11 -6 -4
-17 -3 -25 3 -12 7 -10 9 6 9 12 0 25 7 28 16 4 10 2 13 -7 8 -6 -4 -9 -4 -5
1 4 4 3 16 -3 27 -8 15 -14 17 -24 8 -18 -15 -26 10 -9 28 7 7 11 20 8 30 -5
14 -4 14 4 3 6 -8 8 -19 6 -26 -3 -6 2 -12 10 -12 11 0 14 8 11 24 -3 21 -2
23 10 13 8 -7 13 -16 10 -20 -3 -5 -1 -11 5 -15 7 -4 7 -12 0 -25 -7 -13 -7
-21 2 -26 7 -4 8 -3 4 4 -4 7 -1 12 9 12 10 0 13 -5 9 -12 -5 -7 -3 -8 6 -3
10 6 10 11 -4 20 -14 11 -14 14 -2 25 9 6 19 9 24 6 5 -3 20 6 33 20 21 22 21
24 4 19 -14 -5 -16 -4 -7 3 7 5 24 7 38 4 20 -4 23 -1 18 14 -4 14 -3 15 3 6
6 -7 7 -35 2 -65 -4 -29 -10 -72 -12 -97 -3 -25 -9 -56 -13 -69 -7 -23 -8 -24
-15 -5 -6 15 -8 12 -8 -13 -1 -18 -6 -33 -12 -33 -5 0 -8 -4 -5 -8 2 -4 -8
-38 -24 -75 l-28 -67 72 0 73 0 30 113 c17 61 36 135 42 162 6 28 21 88 33
135 21 79 23 111 25 454 2 246 7 374 14 380 11 11 22 1 98 -89 33 -40 33 -40
26 -10 -3 16 -29 53 -56 82 -27 28 -49 59 -49 67 0 8 33 63 73 121 39 58 87
131 105 161 34 56 74 187 86 279 4 34 13 56 28 69 16 13 19 20 11 23 -23 8 -6
123 18 123 18 0 38 58 45 130 4 43 17 97 30 127 19 41 22 57 14 78 -10 26 2
194 15 215 3 6 9 71 12 145 4 114 2 140 -11 160 -20 30 -20 55 -1 91 19 36 19
58 0 111 -14 39 -13 47 11 120 17 54 26 107 29 173 2 52 8 115 14 140 6 28 6
61 1 86 -5 22 -6 71 -2 110 8 73 8 75 -33 199 -47 141 -56 162 -87 194 -22 23
-30 41 -31 71 -1 22 -7 44 -13 48 -6 4 -17 24 -24 46 -14 43 -70 110 -109 131
-14 7 -37 24 -51 37 -13 12 -33 28 -44 33 -14 7 -21 22 -23 45 -2 24 -12 42
-30 58 -16 13 -39 33 -53 45 -14 12 -36 22 -50 23 -14 1 -28 2 -31 3 -3 1 -23
17 -43 36 -21 19 -46 35 -56 35 -10 0 -32 11 -48 25 -16 13 -49 31 -73 39 -58
20 -200 47 -268 52 -30 2 -59 8 -65 14 -10 10 -93 12 -131 3z m245 -608 c69
-7 118 -16 205 -36 44 -11 90 -22 103 -25 13 -2 20 -9 17 -14 -4 -7 12 -17 45
-25 38 -11 110 -62 111 -79 0 -6 21 -25 47 -42 26 -17 52 -39 57 -50 6 -10 30
-39 53 -63 23 -24 42 -49 42 -57 0 -7 6 -19 13 -26 7 -7 19 -40 26 -73 7 -33
18 -73 23 -90 6 -16 12 -135 13 -263 l2 -233 -26 40 c-32 48 -65 75 -128 103
-42 19 -71 23 -220 26 -194 5 -215 2 -231 -30 l-12 -23 6 23 c5 21 3 22 -23
16 -36 -9 -43 -20 -43 -71 0 -30 -4 -43 -14 -43 -21 0 -136 -129 -142 -159 -2
-14 -9 -39 -15 -56 -34 -95 -15 -362 33 -465 24 -51 27 -144 6 -188 -7 -14
-31 -39 -53 -54 -35 -24 -50 -27 -115 -28 -75 0 -84 3 -152 52 -14 10 -22 10
-37 1 -12 -8 -21 -9 -25 -2 -2 5 -3 4 -1 -3 1 -7 7 -12 13 -11 5 1 12 -3 15
-10 3 -9 -6 -11 -34 -9 -28 3 -39 9 -39 21 0 15 -6 16 -55 7 -42 -8 -55 -15
-58 -31 -3 -11 -2 2 0 29 2 28 12 62 21 78 16 28 12 46 -7 33 -19 -11 -51 -83
-57 -128 -8 -54 11 -124 34 -130 9 -2 55 -5 100 -6 76 -2 90 -6 155 -42 57
-30 83 -39 122 -39 54 0 146 37 178 71 20 21 76 26 109 8 29 -16 91 4 117 38
43 54 19 155 -53 225 -18 18 -53 72 -76 120 -41 84 -42 90 -39 170 4 79 6 85
37 116 38 37 40 38 38 15 -1 -13 11 -21 44 -29 25 -7 81 -22 124 -33 101 -27
194 -27 266 0 30 11 70 23 89 27 l34 7 -47 38 c-91 76 -222 110 -336 89 -62
-12 -91 0 -44 19 126 49 308 16 400 -73 52 -50 68 -34 19 20 -39 44 -126 87
-205 102 -57 11 -205 -1 -239 -20 -11 -5 -24 -10 -28 -10 -11 0 -11 106 0 116
4 4 7 14 7 23 0 23 39 56 85 72 22 7 44 17 49 21 17 14 118 8 215 -12 70 -14
108 -28 145 -53 28 -19 60 -39 71 -45 16 -8 22 -28 32 -94 6 -46 19 -132 28
-193 18 -114 16 -307 -3 -370 -14 -45 -39 -132 -58 -205 -9 -36 -23 -75 -31
-88 -10 -16 -14 -56 -14 -133 0 -172 -30 -304 -110 -490 -37 -85 -64 -131
-100 -170 -27 -30 -49 -58 -49 -62 0 -4 -13 -13 -30 -18 -16 -6 -30 -15 -30
-20 0 -5 -6 -9 -14 -9 -8 0 -22 -10 -30 -22 -9 -12 -16 -17 -16 -10 0 21 -20
13 -32 -13 -6 -14 -17 -25 -25 -25 -7 0 -13 -4 -13 -10 0 -5 -5 -10 -11 -10
-6 0 -23 -8 -37 -19 -15 -10 -49 -26 -77 -35 -27 -10 -53 -23 -57 -29 -4 -7
-11 -12 -15 -12 -4 -1 -26 -7 -47 -14 -21 -7 -60 -14 -85 -15 -26 -1 -52 -5
-58 -9 -7 -4 -14 1 -18 13 -4 11 -11 18 -16 14 -6 -3 -17 2 -25 12 -14 17 -15
17 -10 1 3 -11 0 -17 -9 -17 -9 0 -12 -6 -9 -15 4 -11 2 -13 -9 -9 -9 3 -14
15 -12 30 1 14 0 22 -3 19 -3 -2 -12 1 -20 8 -11 8 -14 8 -9 0 4 -6 3 -14 -3
-18 -5 -3 -10 1 -10 9 0 9 -7 16 -16 16 -8 0 -13 4 -9 9 3 5 2 12 -3 15 -4 2
-9 -9 -10 -25 -2 -19 3 -32 14 -36 13 -5 13 -7 2 -14 -26 -17 -39 -10 -32 16
4 17 2 25 -6 25 -9 0 -10 3 -1 14 15 18 -8 39 -29 26 -8 -6 -10 -10 -4 -10 6
0 11 -7 11 -16 0 -15 -1 -15 -12 0 -7 8 -14 14 -17 11 -2 -3 -4 5 -3 18 3 31
-4 40 -22 26 -12 -10 -19 -8 -39 14 -14 15 -30 24 -36 21 -6 -4 -8 -3 -4 4 3
6 2 13 -4 17 -5 3 -10 1 -10 -6 0 -8 -3 -9 -13 0 -8 6 -18 7 -22 3 -5 -4 -5
-1 -1 6 4 7 12 10 17 7 5 -3 6 1 3 10 -4 9 -9 13 -12 11 -3 -3 -11 2 -19 12
-9 10 -11 11 -7 2 7 -13 6 -13 -9 -1 -10 8 -15 16 -12 19 3 3 -10 15 -28 26
-20 13 -33 31 -35 46 -1 14 -3 31 -4 38 -1 6 -5 12 -10 12 -5 0 -6 5 -3 10 4
6 1 9 -5 8 -7 -2 -20 12 -29 29 -10 18 -22 29 -27 25 -4 -4 -2 2 6 12 10 13
10 17 3 12 -8 -4 -13 -1 -13 8 0 9 -7 16 -16 16 -8 0 -13 4 -9 9 3 5 -2 17
-11 25 -8 9 -17 35 -19 58 -2 26 -10 48 -22 58 -10 8 -19 22 -19 30 -1 23 -20
65 -30 65 -4 0 -9 7 -9 16 -1 10 -9 24 -18 34 -9 9 -17 21 -17 26 0 6 -4 8 -8
5 -4 -2 -14 -1 -22 4 -9 5 -20 4 -29 -3 -12 -10 -13 -9 -6 2 6 11 4 13 -8 8
-9 -3 -19 -1 -23 4 -3 6 -15 9 -25 6 -11 -3 -17 -1 -13 4 3 5 0 9 -5 9 -6 0
-11 11 -11 25 0 36 -66 276 -105 380 -76 203 -79 231 -64 596 6 162 11 302 11
312 -1 13 3 15 18 7 13 -7 26 -4 53 14 64 44 143 67 231 67 76 0 115 -6 126
-21 3 -4 33 -21 67 -40 79 -42 129 -90 159 -154 21 -46 31 -96 19 -96 -2 0
-36 17 -75 37 -67 35 -79 38 -173 41 -121 5 -185 -15 -256 -76 -67 -58 -48
-70 29 -19 88 59 126 70 224 65 62 -4 99 -12 159 -37 76 -33 135 -70 109 -71
-7 0 -10 -4 -7 -10 9 -15 -2 -12 -32 8 -28 17 -77 33 -171 53 -69 15 -139 1
-246 -50 -44 -21 -89 -41 -99 -45 -29 -10 -9 -26 31 -26 23 0 51 -9 73 -25 78
-52 208 -58 339 -15 107 35 160 48 160 39 0 -5 11 -9 25 -9 37 0 56 -36 45
-85 -5 -22 -10 -53 -10 -70 0 -16 -7 -42 -14 -57 -14 -27 -14 -28 12 -27 20 0
23 2 10 7 -11 5 -14 12 -9 21 6 9 11 10 15 2 4 -6 12 -9 17 -6 5 4 9 2 9 -4 0
-9 25 -10 34 0 16 15 25 325 12 393 -11 55 -69 148 -119 193 -38 33 -43 41
-34 60 41 92 -97 146 -378 147 -146 1 -164 -1 -205 -22 -57 -28 -98 -66 -116
-106 l-13 -31 -1 31 c0 17 3 33 6 37 4 3 7 28 8 56 1 27 9 57 17 67 12 16 12
17 -1 9 -13 -8 -13 -7 -1 8 11 14 11 17 0 17 -11 1 -10 3 2 13 9 7 16 26 16
42 1 27 4 50 15 95 1 8 -3 14 -10 12 -8 -1 -11 2 -7 7 3 6 13 7 23 4 14 -6 15
-4 4 9 -9 11 -10 18 -2 23 5 3 10 12 10 18 0 7 -4 6 -10 -3 -8 -12 -10 -11
-10 6 0 11 -6 26 -13 34 -10 12 -9 12 6 1 22 -17 22 -17 15 102 -1 26 -6 47
-9 47 -4 0 -5 9 -2 20 3 11 9 20 14 20 5 0 9 6 9 13 1 31 122 137 157 137 8 0
39 16 69 35 30 19 64 35 77 35 12 0 60 14 107 31 47 16 105 36 130 44 25 7 65
21 90 30 25 10 79 21 120 25 71 8 282 5 380 -5z m-1539 -298 c-13 -13 -26 -3
-16 12 3 6 11 8 17 5 6 -4 6 -10 -1 -17z m393 -195 c3 -5 -1 -9 -9 -9 -8 0
-12 4 -9 9 3 4 7 8 9 8 2 0 6 -4 9 -8z m1296 -840 c0 -17 -38 -44 -45 -32 -4
6 1 18 11 25 22 16 34 19 34 7z m102 -64 c2 -29 4 -54 4 -54 -3 -6 -121 25
-123 32 -3 8 93 74 109 74 3 0 8 -24 10 -52z m-1139 18 c-3 -13 2 -38 11 -55
16 -30 16 -31 -6 -31 -28 0 -108 36 -108 48 0 20 62 59 96 61 7 1 9 -9 7 -23z
m172 -6 c0 -16 -6 -26 -18 -28 -19 -4 -32 20 -23 44 9 25 41 13 41 -16z m113
-3 c17 -10 32 -22 32 -26 0 -9 -110 -44 -117 -38 -2 3 0 14 6 25 6 12 11 32
11 46 0 28 9 27 68 -7z m1020 21 c14 -14 -2 -48 -23 -48 -21 0 -37 34 -23 48
7 7 17 12 23 12 6 0 16 -5 23 -12z m92 -23 c22 -14 40 -30 40 -35 0 -13 -66
-40 -97 -40 -25 0 -25 1 -9 25 9 13 16 36 16 50 0 31 1 31 50 0z m445 -45 c-4
-12 -9 -19 -13 -16 -3 3 -13 -1 -23 -10 -17 -15 -18 -14 -25 10 -4 17 0 35 11
52 l17 26 20 -20 c14 -14 18 -26 13 -42z m-2384 -83 c-13 -13 -26 -3 -16 12 3
6 11 8 17 5 6 -4 6 -10 -1 -17z m1513 -319 c33 -14 54 -47 52 -78 -1 -20 -6
-24 -26 -22 -14 2 -45 4 -69 5 -24 1 -46 7 -48 14 -6 18 36 93 52 93 8 0 25
-5 39 -12z m-1433 -265 c8 -45 12 -83 8 -83 -4 0 -19 14 -33 31 -26 30 -33 54
-18 62 4 2 2 3 -5 1 -6 -1 -14 7 -17 19 -11 43 -7 54 22 54 27 0 28 -3 43 -84z
m953 -1086 c3 3 6 1 6 -5 0 -7 -10 -12 -23 -12 -14 0 -24 6 -24 14 0 11 5 12
17 6 10 -5 20 -6 24 -3z m773 -479 c-3 -7 -5 -2 -5 12 0 14 2 19 5 13 2 -7 2
-19 0 -25z m-357 -78 c-8 -5 -19 -10 -25 -10 -5 0 -3 5 5 10 8 5 20 10 25 10
6 0 3 -5 -5 -10z m291 -43 c-6 -6 -7 -16 -1 -26 6 -13 4 -17 -12 -18 -16 -2
-17 1 -8 13 7 8 9 14 5 14 -4 0 -2 6 4 13 6 8 7 18 3 22 -4 5 -1 5 6 0 10 -5
11 -10 3 -18z m50 -24 c13 -16 12 -17 -3 -4 -10 7 -18 15 -18 17 0 8 8 3 21
-13z m-146 -14 c4 -5 -2 -6 -12 -2 -16 6 -16 5 -4 -10 7 -9 9 -17 5 -17 -5 0
-14 8 -20 18 -10 15 -8 18 7 19 10 1 21 -2 24 -8z m-200 -109 c-3 -5 -12 -10
-18 -10 -7 0 -6 4 3 10 19 12 23 12 15 0z m41 -6 c-18 -17 -23 -18 -23 -1 0 7
9 14 19 14 16 2 16 0 4 -13z m57 -1 c-7 -18 -30 -17 -30 1 0 8 8 14 18 13 9
-1 15 -7 12 -14z m-123 -93 c0 -5 -5 -10 -11 -10 -5 0 -7 5 -4 10 3 6 8 10 11
10 2 0 4 -4 4 -10z m123 -53 c-3 -4 -11 -6 -19 -3 -8 3 -17 -1 -20 -9 -8 -19
-21 -19 -21 0 0 8 3 13 5 10 9 -8 32 17 26 27 -3 5 3 4 14 -3 12 -7 18 -17 15
-22z m-58 -47 c3 -6 -1 -7 -9 -4 -18 7 -21 14 -7 14 6 0 13 -4 16 -10z m89
-31 c-8 -14 -24 -10 -24 6 0 9 6 12 15 9 8 -4 12 -10 9 -15z m-1818 -24 c-11
-8 -22 -12 -25 -9 -6 6 19 24 34 24 6 -1 1 -7 -9 -15z m1643 5 c-6 -5 -18 -6
-26 -3 -19 8 -16 11 13 11 17 0 22 -3 13 -8z m46 -8 c-3 -3 -11 0 -18 7 -9 10
-8 11 6 5 10 -3 15 -9 12 -12z m39 10 c3 -5 -1 -9 -9 -9 -8 0 -15 4 -15 9 0
10 17 10 24 0z"/>
<path d="M2260 2825 c-43 -24 -134 -63 -160 -69 -64 -15 -209 -13 -259 4 -28
9 -51 14 -51 11 0 -3 27 -21 59 -38 55 -30 67 -33 148 -33 83 0 92 2 158 39
120 66 135 76 135 89 0 6 -1 12 -2 11 -2 0 -14 -7 -28 -14z"/>
<path d="M3010 2767 c14 -6 48 -21 75 -33 76 -34 130 -38 195 -15 60 22 63 21
-55 25 -27 2 -66 7 -85 13 -19 6 -62 13 -95 16 -49 4 -55 3 -35 -6z"/>
<path d="M2408 2582 c3 -24 7 -30 13 -21 13 21 11 56 -4 56 -8 0 -11 -11 -9
-35z"/>
<path d="M2375 2590 c-3 -5 1 -10 10 -10 9 0 13 5 10 10 -3 6 -8 10 -10 10 -2
0 -7 -4 -10 -10z"/>
<path d="M2330 2339 c0 -5 5 -7 10 -4 6 3 10 8 10 11 0 2 -4 4 -10 4 -5 0 -10
-5 -10 -11z"/>
<path d="M2300 1919 c-30 -16 -71 -42 -90 -58 -19 -15 -59 -41 -88 -57 -56
-31 -71 -56 -51 -80 9 -11 23 -14 49 -10 32 5 36 2 51 -27 9 -18 43 -55 77
-84 124 -105 356 -146 531 -93 64 19 82 30 133 80 32 32 58 66 58 74 0 10 9
16 24 16 13 0 28 6 35 13 15 19 -96 134 -174 180 -99 58 -138 63 -267 31 -17
-4 -28 -2 -28 4 0 18 -80 42 -143 42 -50 0 -73 -6 -117 -31z m63 -216 c-7 -2
-21 -2 -30 0 -10 3 -4 5 12 5 17 0 24 -2 18 -5z m447 -73 c0 -12 -120 -47
-190 -55 -51 -5 -160 12 -189 30 -30 18 -2 25 95 24 58 0 108 2 112 5 10 10
172 7 172 -4z"/>
<path d="M2350 1432 c0 -23 6 -45 15 -52 11 -9 76 -14 215 -18 182 -4 200 -3
206 12 10 27 -25 55 -87 71 -30 7 -120 16 -201 20 l-148 7 0 -40z"/>
<path d="M2155 1340 c3 -5 8 -10 11 -10 2 0 4 5 4 10 0 6 -5 10 -11 10 -5 0
-7 -4 -4 -10z"/>
<path d="M3500 1056 c0 -3 9 -20 19 -38 21 -36 104 -284 120 -359 15 -67 51
-439 51 -524 0 -98 8 -135 30 -135 28 0 31 24 20 184 -18 254 -54 464 -106
618 -35 104 -39 122 -26 101 18 -28 140 -81 203 -88 84 -9 311 -57 434 -92 20
-6 20 -5 1 15 -23 26 -67 41 -123 41 -23 0 -53 7 -66 16 -14 9 -78 27 -143 40
-230 48 -298 79 -346 157 -25 40 -68 81 -68 64z"/>
<path d="M0 725 c0 -12 5 -13 18 -7 9 5 24 12 32 15 8 3 0 6 -17 6 -23 1 -33
-4 -33 -14z"/>
<path d="M4360 711 c-32 -9 -20 -16 54 -31 99 -20 204 -55 331 -110 144 -62
207 -97 303 -167 l72 -53 0 34 c0 32 -5 37 -57 67 -212 118 -422 209 -484 209
-16 0 -51 11 -77 24 -55 28 -106 38 -142 27z"/>
<path d="M1131 574 c0 -11 3 -14 6 -6 3 7 2 16 -1 19 -3 4 -6 -2 -5 -13z"/>
<path d="M3122 383 c-8 -14 -9 -24 -2 -28 7 -4 7 -13 0 -26 -7 -12 -7 -19 -1
-19 11 0 25 62 19 82 -3 9 -9 6 -16 -9z"/>
<path d="M3085 370 c-3 -5 -1 -10 4 -10 6 0 11 5 11 10 0 6 -2 10 -4 10 -3 0
-8 -4 -11 -10z"/>
<path d="M3078 343 c-24 -6 -23 -33 1 -33 14 0 19 6 18 20 -1 11 -1 19 -2 19
0 -1 -8 -3 -17 -6z"/>
<path d="M3010 292 c0 -6 9 -12 20 -15 11 -3 20 -3 20 -1 0 2 -9 8 -20 14 -11
6 -20 7 -20 2z"/>
<path d="M3063 276 c0 -15 22 -15 34 0 4 5 4 6 -1 2 -5 -4 -14 -3 -21 2 -8 7
-12 5 -12 -4z"/>
<path d="M831 273 c0 -7 -8 -13 -16 -13 -13 0 -15 -21 -15 -130 0 -121 1 -130
19 -130 17 0 20 10 25 73 5 56 -7 249 -13 200z"/>
<path d="M3069 223 c-12 -16 -12 -17 2 -6 9 7 20 9 24 5 5 -4 5 -1 1 6 -9 16
-11 15 -27 -5z"/>
<path d="M2985 190 c-4 -6 -11 -7 -17 -4 -6 4 -8 2 -4 -4 3 -5 0 -13 -6 -15
-8 -3 -8 -6 -2 -6 6 -1 19 8 29 19 10 11 15 20 12 20 -3 0 -9 -5 -12 -10z"/>
<path d="M3016 191 c-4 -5 -2 -12 3 -15 5 -4 12 -2 15 3 4 5 2 12 -3 15 -5 4
-12 2 -15 -3z"/>
<path d="M3762 20 c0 -14 2 -19 5 -12 2 6 2 18 0 25 -3 6 -5 1 -5 -13z"/>
<path d="M2840 15 c-11 -13 -7 -15 31 -13 37 1 39 2 11 5 -18 2 -30 9 -27 14
10 14 -1 11 -15 -6z"/>
<path d="M2958 3 c12 -2 30 -2 40 0 9 3 -1 5 -23 4 -22 0 -30 -2 -17 -4z"/>
</g>
</svg>
